<svg width="20" height="20" viewBox="0 0 20 20" fill="none" xmlns="http://www.w3.org/2000/svg">
<path d="M10 0L10.324 0.000999928L10.642 0.00500011L11.258 0.0220001L11.557 0.0350001L12.136 0.069L12.689 0.115C17.474 0.579 19.421 2.526 19.885 7.311L19.931 7.864L19.965 8.443C19.97 8.541 19.975 8.641 19.978 8.742L19.995 9.358L20 10L19.995 10.642L19.978 11.258L19.965 11.557L19.931 12.136L19.885 12.689C19.421 17.474 17.474 19.421 12.689 19.885L12.136 19.931L11.557 19.965C11.459 19.97 11.359 19.975 11.258 19.978L10.642 19.995L10 20L9.358 19.995L8.742 19.978L8.443 19.965L7.864 19.931L7.311 19.885C2.526 19.421 0.579 17.474 0.115 12.689L0.069 12.136L0.0350001 11.557C0.0301352 11.4574 0.0258018 11.3577 0.0220001 11.258L0.00500011 10.642C0.00200011 10.432 0 10.218 0 10L0.000999928 9.676L0.00500011 9.358L0.0220001 8.742L0.0350001 8.443L0.069 7.864L0.115 7.311C0.579 2.526 2.526 0.579 7.311 0.115L7.864 0.069L8.443 0.0350001C8.541 0.0300001 8.641 0.0250001 8.742 0.0220001L9.358 0.00500011C9.568 0.00200011 9.782 0 10 0ZM10.707 5.293C10.5195 5.10553 10.2652 5.00021 10 5.00021C9.73484 5.00021 9.48053 5.10553 9.293 5.293L5.293 9.293C5.21084 9.37575 5.14322 9.47176 5.093 9.577L5.071 9.629C5.04208 9.7003 5.02194 9.77484 5.011 9.851L5.003 9.918L5.001 9.981V9.946V10.019C5.00364 10.1395 5.02733 10.2586 5.071 10.371L5.094 10.423L5.124 10.484L5.146 10.521C5.16174 10.5463 5.17842 10.571 5.196 10.595L5.22 10.625L5.293 10.707L9.293 14.707L9.387 14.79C9.5794 14.9393 9.81966 15.0132 10.0627 14.9979C10.3057 14.9826 10.5348 14.8792 10.707 14.707L10.79 14.613C10.9393 14.4206 11.0132 14.1803 10.9979 13.9373C10.9826 13.6943 10.8792 13.4652 10.707 13.293L8.415 11H14L14.117 10.993C14.3701 10.9629 14.6021 10.8373 14.7657 10.6418C14.9293 10.4464 15.0121 10.1958 14.9972 9.94139C14.9822 9.68695 14.8707 9.44782 14.6854 9.27285C14.5 9.09788 14.2549 9.00028 14 9H8.415L10.707 6.707L10.79 6.613C10.9393 6.4206 11.0132 6.18034 10.9979 5.93732C10.9826 5.69429 10.8792 5.46519 10.707 5.293Z" fill="black"/>
</svg>
