<svg width="20" height="20" viewBox="0 0 20 20" fill="none" xmlns="http://www.w3.org/2000/svg">
<path d="M-4.37114e-07 10L0.000999476 10.324L0.00499965 10.642L0.0219996 11.258L0.0349996 11.557L0.0689995 12.136L0.114999 12.689C0.578999 17.474 2.526 19.421 7.311 19.885L7.864 19.931L8.443 19.965C8.541 19.97 8.641 19.975 8.742 19.978L9.358 19.995L10 20L10.642 19.995L11.258 19.978L11.557 19.965L12.136 19.931L12.689 19.885C17.474 19.421 19.421 17.474 19.885 12.689L19.931 12.136L19.965 11.557C19.97 11.459 19.975 11.359 19.978 11.258L19.995 10.642L20 10L19.995 9.358L19.978 8.742L19.965 8.443L19.931 7.864L19.885 7.311C19.421 2.526 17.474 0.579001 12.689 0.115001L12.136 0.0690005L11.557 0.0350006C11.4574 0.0301357 11.3577 0.0258023 11.258 0.0220006L10.642 0.00500058C10.432 0.00200057 10.218 4.46643e-07 10 4.37114e-07L9.676 0.00100035L9.358 0.00500052L8.742 0.0220005L8.443 0.0350005L7.864 0.0690003L7.311 0.115C2.526 0.579 0.579 2.526 0.115 7.311L0.0689997 7.864L0.0349997 8.443C0.0299997 8.541 0.0249997 8.641 0.0219997 8.742L0.00499971 9.358C0.0019997 9.568 -4.27585e-07 9.782 -4.37114e-07 10ZM5.293 10.707C5.10553 10.5195 5.00021 10.2652 5.00021 10C5.00021 9.73484 5.10553 9.48053 5.293 9.293L9.293 5.293C9.37575 5.21084 9.47176 5.14323 9.577 5.093L9.629 5.071C9.7003 5.04208 9.77484 5.02194 9.851 5.011L9.918 5.003L9.981 5.001L9.946 5.001L10.019 5.001C10.1395 5.00364 10.2586 5.02733 10.371 5.071L10.423 5.094L10.484 5.124L10.521 5.146C10.5463 5.16174 10.571 5.17842 10.595 5.196L10.625 5.22L10.707 5.293L14.707 9.293L14.79 9.387C14.9393 9.5794 15.0132 9.81966 14.9979 10.0627C14.9826 10.3057 14.8792 10.5348 14.707 10.707L14.613 10.79C14.4206 10.9393 14.1803 11.0132 13.9373 10.9979C13.6943 10.9826 13.4652 10.8792 13.293 10.707L11 8.415L11 14L10.993 14.117C10.9629 14.3701 10.8373 14.6021 10.6418 14.7657C10.4464 14.9293 10.1958 15.0121 9.94139 14.9972C9.68695 14.9822 9.44782 14.8707 9.27285 14.6854C9.09788 14.5 9.00028 14.2549 9 14L9 8.415L6.707 10.707L6.613 10.79C6.4206 10.9393 6.18034 11.0132 5.93732 10.9979C5.69429 10.9826 5.46519 10.8792 5.293 10.707Z" fill="black"/>
</svg>
