<svg width="20" height="20" viewBox="0 0 20 20" fill="none" xmlns="http://www.w3.org/2000/svg">
<path d="M-4.37114e-07 10L0.000999476 9.676L0.00499965 9.358L0.0219996 8.742L0.0349996 8.443L0.0689995 7.864L0.114999 7.311C0.578999 2.526 2.526 0.579 7.311 0.114999L7.864 0.0689999L8.443 0.0349995C8.541 0.0299995 8.641 0.024999 8.742 0.021999L9.358 0.00499875L10 -4.37114e-07L10.642 0.0049987L11.258 0.0219989L11.557 0.0349993L12.136 0.0689997L12.689 0.114999C17.474 0.578999 19.421 2.526 19.885 7.311L19.931 7.864L19.965 8.443C19.97 8.541 19.975 8.641 19.978 8.742L19.995 9.358L20 10L19.995 10.642L19.978 11.258L19.965 11.557L19.931 12.136L19.885 12.689C19.421 17.474 17.474 19.421 12.689 19.885L12.136 19.931L11.557 19.965C11.4574 19.9699 11.3577 19.9742 11.258 19.978L10.642 19.995C10.432 19.998 10.218 20 10 20L9.676 19.999L9.358 19.995L8.742 19.978L8.443 19.965L7.864 19.931L7.311 19.885C2.526 19.421 0.579 17.474 0.115 12.689L0.0689997 12.136L0.0349997 11.557C0.0299997 11.459 0.0249997 11.359 0.0219997 11.258L0.00499971 10.642C0.0019997 10.432 -4.27585e-07 10.218 -4.37114e-07 10ZM5.293 9.293C5.10553 9.48053 5.00021 9.73484 5.00021 10C5.00021 10.2652 5.10553 10.5195 5.293 10.707L9.293 14.707C9.37575 14.7892 9.47176 14.8568 9.577 14.907L9.629 14.929C9.7003 14.9579 9.77484 14.9781 9.851 14.989L9.918 14.997L9.981 14.999L9.946 14.999L10.019 14.999C10.1395 14.9964 10.2586 14.9727 10.371 14.929L10.423 14.906L10.484 14.876L10.521 14.854C10.5463 14.8383 10.571 14.8216 10.595 14.804L10.625 14.78L10.707 14.707L14.707 10.707L14.79 10.613C14.9393 10.4206 15.0132 10.1803 14.9979 9.93732C14.9826 9.69429 14.8792 9.46519 14.707 9.293L14.613 9.21C14.4206 9.06075 14.1803 8.98683 13.9373 9.00211C13.6943 9.01739 13.4652 9.12082 13.293 9.293L11 11.585L11 6L10.993 5.883C10.9629 5.6299 10.8373 5.39785 10.6418 5.23426C10.4464 5.07067 10.1958 4.98789 9.94139 5.00283C9.68695 5.01777 9.44782 5.1293 9.27285 5.31463C9.09788 5.49997 9.00028 5.74512 9 6L9 11.585L6.707 9.293L6.613 9.21C6.4206 9.06075 6.18034 8.98683 5.93732 9.00211C5.69429 9.01739 5.46519 9.12082 5.293 9.293Z" fill="black"/>
</svg>
