<svg width="20" height="20" viewBox="0 0 20 20" fill="none" xmlns="http://www.w3.org/2000/svg">
<path d="M10 0L9.676 0.000999928L9.358 0.00500011L8.742 0.0220001L8.443 0.0350001L7.864 0.069L7.311 0.115C2.526 0.579 0.579 2.526 0.115 7.311L0.0690002 7.864L0.0349998 8.443C0.0299998 8.541 0.0249994 8.641 0.0219994 8.742L0.00499916 9.358L0 10L0.00499916 10.642L0.0219994 11.258L0.0349998 11.557L0.0690002 12.136L0.115 12.689C0.579 17.474 2.526 19.421 7.311 19.885L7.864 19.931L8.443 19.965C8.541 19.97 8.641 19.975 8.742 19.978L9.358 19.995L10 20L10.642 19.995L11.258 19.978L11.557 19.965L12.136 19.931L12.689 19.885C17.474 19.421 19.421 17.474 19.885 12.689L19.931 12.136L19.965 11.557C19.9699 11.4574 19.9742 11.3577 19.978 11.258L19.995 10.642C19.998 10.432 20 10.218 20 10L19.999 9.676L19.995 9.358L19.978 8.742L19.965 8.443L19.931 7.864L19.885 7.311C19.421 2.526 17.474 0.579 12.689 0.115L12.136 0.069L11.557 0.0350001C11.459 0.0300001 11.359 0.0250001 11.258 0.0220001L10.642 0.00500011C10.432 0.00200011 10.218 0 10 0ZM9.293 5.293C9.48053 5.10553 9.73484 5.00021 10 5.00021C10.2652 5.00021 10.5195 5.10553 10.707 5.293L14.707 9.293C14.7892 9.37575 14.8568 9.47176 14.907 9.577L14.929 9.629C14.9579 9.7003 14.9781 9.77484 14.989 9.851L14.997 9.918L14.999 9.981V9.946V10.019C14.9964 10.1395 14.9727 10.2586 14.929 10.371L14.906 10.423L14.876 10.484L14.854 10.521C14.8383 10.5463 14.8216 10.571 14.804 10.595L14.78 10.625L14.707 10.707L10.707 14.707L10.613 14.79C10.4206 14.9393 10.1803 15.0132 9.93732 14.9979C9.69429 14.9826 9.46519 14.8792 9.293 14.707L9.21 14.613C9.06075 14.4206 8.98683 14.1803 9.00211 13.9373C9.01739 13.6943 9.12082 13.4652 9.293 13.293L11.585 11H6L5.883 10.993C5.6299 10.9629 5.39785 10.8373 5.23426 10.6418C5.07067 10.4464 4.98789 10.1958 5.00283 9.94139C5.01777 9.68695 5.1293 9.44782 5.31463 9.27285C5.49997 9.09788 5.74512 9.00028 6 9H11.585L9.293 6.707L9.21 6.613C9.06075 6.4206 8.98683 6.18034 9.00211 5.93732C9.01739 5.69429 9.12082 5.46519 9.293 5.293Z" fill="black"/>
</svg>
