<svg width="71" height="46" viewBox="0 0 71 46" fill="none" xmlns="http://www.w3.org/2000/svg">
<rect x="28.6008" y="24.5771" width="2.5246" height="41.456" rx="1.10997" transform="rotate(-90 28.6008 24.5771)" fill="#418D20"/>
<rect x="-2.91368" y="-2.91368" width="8.35196" height="21.4296" rx="4.17598" transform="matrix(-1.19249e-08 1 1 1.19249e-08 25.613 22.1201)" fill="white" stroke="#418D20" stroke-width="5.82735"/>
<rect width="2.5246" height="17.8062" rx="1.2623" transform="matrix(-1.19249e-08 1 1 1.19249e-08 6.09937 22.1201)" fill="white"/>
<rect width="2.5246" height="14.5415" rx="1.2623" transform="matrix(-1.19249e-08 1 1 1.19249e-08 42.6045 22.1201)" fill="white"/>
<rect x="0.794299" y="-4.04328" width="8.35196" height="21.5702" rx="4.17598" transform="matrix(-0.83015 0.55754 0.55754 0.83015 19.7041 9.50907)" fill="#418D20" stroke="#418D20" stroke-width="5.82735"/>
<rect x="0.794299" y="-4.04328" width="8.35196" height="26.9649" rx="4.17598" transform="matrix(-0.83015 0.55754 0.55754 0.83015 33.612 5.00028)" fill="white" stroke="#418D20" stroke-width="5.82735"/>
<rect x="0.794299" y="-4.04328" width="8.35196" height="21.5976" rx="4.17598" transform="matrix(-0.83015 0.55754 0.55754 0.83015 52.9738 9.50907)" fill="#418D20" stroke="#418D20" stroke-width="5.82735"/>
<rect x="22.6994" y="27.5611" width="8.35196" height="21.4296" rx="4.17598" transform="rotate(-90 22.6994 27.5611)" fill="white" stroke="#418D20" stroke-width="5.82735"/>
<rect x="6.09937" y="24.6475" width="2.5246" height="17.8062" rx="1.2623" transform="rotate(-90 6.09937 24.6475)" fill="#418D20"/>
<rect x="42.6045" y="24.6475" width="2.5246" height="14.5415" rx="1.2623" transform="rotate(-90 42.6045 24.6475)" fill="white"/>
<rect x="16.7904" y="40.1712" width="8.35196" height="21.5702" rx="4.17598" transform="rotate(-146.114 16.7904 40.1712)" fill="#418D20" stroke="#418D20" stroke-width="5.82735"/>
<rect x="30.6984" y="44.681" width="8.35196" height="26.9649" rx="4.17598" transform="rotate(-146.114 30.6984 44.681)" fill="#418D20" stroke="#418D20" stroke-width="5.82735"/>
<rect x="50.0602" y="40.1712" width="8.35196" height="21.5976" rx="4.17598" transform="rotate(-146.114 50.0602 40.1712)" fill="#418D20" stroke="#418D20" stroke-width="5.82735"/>
<rect width="2.5246" height="15.6023" rx="1.2623" transform="matrix(-1.19249e-08 1 1 1.19249e-08 25.613 22.1201)" fill="white"/>
<rect x="-2.91368" y="-2.91368" width="8.35196" height="23.6336" rx="4.17598" transform="matrix(-1.19249e-08 1 1 1.19249e-08 6.09937 22.1201)" fill="white" stroke="#418D20" stroke-width="5.82735"/>
<rect width="2.5246" height="14.5415" rx="1.2623" transform="matrix(-1.19249e-08 1 1 1.19249e-08 42.6045 22.1201)" fill="white"/>
<rect width="2.5246" height="15.7428" rx="1.2623" transform="matrix(-0.83015 0.55754 0.55754 0.83015 15.9961 10.6387)" fill="white"/>
<rect width="2.5246" height="21.1376" rx="1.2623" transform="matrix(-0.83015 0.55754 0.55754 0.83015 29.9041 6.12988)" fill="white"/>
<rect width="2.5246" height="15.7703" rx="1.2623" transform="matrix(-0.83015 0.55754 0.55754 0.83015 49.2659 10.6387)" fill="white"/>
<rect x="25.613" y="24.6475" width="2.5246" height="15.6023" rx="1.2623" transform="rotate(-90 25.613 24.6475)" fill="white"/>
<rect x="6.09937" y="24.6475" width="2.5246" height="17.8062" rx="1.2623" transform="rotate(-90 6.09937 24.6475)" fill="white"/>
<rect x="42.6045" y="24.6475" width="2.5246" height="14.5415" rx="1.2623" transform="rotate(-90 42.6045 24.6475)" fill="white"/>
<rect x="15.9961" y="36.1279" width="2.5246" height="15.7428" rx="1.2623" transform="rotate(-146.114 15.9961 36.1279)" fill="white"/>
<rect x="29.9041" y="40.6377" width="2.5246" height="21.1376" rx="1.2623" transform="rotate(-146.114 29.9041 40.6377)" fill="white"/>
<rect x="49.2659" y="36.1279" width="2.5246" height="15.7703" rx="1.2623" transform="rotate(-146.114 49.2659 36.1279)" fill="white"/>
</svg>
