<svg width="31" height="20" viewBox="0 0 31 20" fill="none" xmlns="http://www.w3.org/2000/svg">
<path fill-rule="evenodd" clip-rule="evenodd" d="M0.131138 9.99168C0.17977 10.4711 0.340676 10.9173 0.585937 11.3045C1.12451 12.1556 2.07413 12.7205 3.15569 12.7205H4.16992C3.25284 14.1112 3.62704 15.9847 5.01256 16.9155C6.40558 17.8511 8.29429 17.4798 9.22991 16.0868L9.88142 15.1145C9.30643 16.434 9.7365 18.0166 10.9738 18.8477C12.3667 19.7829 14.2542 19.4117 15.1897 18.019L17.9715 13.8742C17.7739 15.0189 18.2452 16.2259 19.2718 16.9155C20.6647 17.8507 22.5522 17.4797 23.4877 16.0868L26.6295 11.4091C26.7983 11.1645 26.9285 10.8992 27.0187 10.6209C27.0214 10.6125 27.0244 10.6041 27.0271 10.5958C27.0478 10.5299 27.0653 10.4633 27.0815 10.3963C27.0883 10.3683 27.0964 10.3406 27.1024 10.3126C27.1106 10.2738 27.1147 10.2345 27.1205 10.1954H28.1222C28.3847 10.195 28.5979 9.98217 28.5979 9.71964V9.5885C28.5976 9.32628 28.3844 9.11309 28.1222 9.11278H27.1122C27.1059 9.08086 27.1012 9.04839 27.094 9.01652C27.0861 8.98101 27.0767 8.9457 27.0675 8.91049C27.0527 8.85401 27.0369 8.79756 27.0187 8.74168C27.0082 8.70941 26.9968 8.67735 26.9852 8.64542C26.9651 8.59032 26.9445 8.53509 26.921 8.4808C26.9002 8.4323 26.8774 8.38457 26.8541 8.33711C26.8377 8.30408 26.8215 8.27068 26.8038 8.23806C26.7495 8.13714 26.6899 8.03859 26.6239 7.94369L23.4891 3.27572C22.6119 1.97049 20.8979 1.56333 19.5396 2.288L19.2732 2.44843C18.2472 3.13749 17.7764 4.34295 17.9729 5.48694L15.1911 1.34492C14.314 0.0393972 12.6001 -0.368944 11.2416 0.355801L10.9752 0.516236C9.73837 1.34689 9.30919 2.92754 9.88281 4.24671L9.23131 3.27572L9.04436 3.0274C8.06101 1.84253 6.31982 1.57162 5.01395 2.44843C3.62825 3.37944 3.25495 5.25265 4.17271 6.64347H3.15569C1.5828 6.64347 0.288545 7.83915 0.132533 9.37087L0.117188 9.68197L0.131138 9.99168ZM18.2575 9.68197C18.2576 9.38344 18.4989 9.14093 18.7974 9.14068H23.1124L20.5148 5.2721C20.3486 5.0242 20.415 4.68809 20.6627 4.52154C20.7302 4.47621 20.8049 4.44971 20.8803 4.43783C20.9031 4.43415 20.9258 4.43161 20.9487 4.43086C21.1281 4.42573 21.3057 4.50945 21.4132 4.66942L24.5787 9.38203C24.5988 9.41225 24.6168 9.44509 24.6303 9.47829C24.6558 9.54046 24.6679 9.60584 24.6694 9.67081C24.6694 9.67447 24.6694 9.67832 24.6694 9.68197C24.6695 9.7911 24.6358 9.89781 24.5731 9.98889L21.4132 14.6959C21.3789 14.7471 21.3356 14.789 21.2891 14.8243C21.2827 14.8291 21.2761 14.8337 21.2695 14.8382C21.2529 14.8497 21.2356 14.8595 21.2179 14.8689C21.2081 14.8741 21.1986 14.8797 21.1886 14.8843C21.1681 14.8936 21.1472 14.9012 21.1258 14.908C21.1171 14.9107 21.1082 14.9127 21.0993 14.915C21.0739 14.9215 21.0487 14.9274 21.0226 14.9303C21.018 14.9308 21.0133 14.9313 21.0086 14.9317C20.9822 14.9339 20.9558 14.9348 20.9291 14.9331C20.924 14.9328 20.9189 14.9308 20.9138 14.9303C20.8268 14.9222 20.7403 14.8959 20.6627 14.8438C20.4449 14.6975 20.366 14.42 20.4632 14.1867C20.4768 14.1534 20.4954 14.1214 20.5162 14.0905L23.1138 10.2233H18.7974C18.5361 10.223 18.3176 10.0373 18.2673 9.79079L18.2575 9.68197ZM10.9752 9.68337C10.9752 9.62012 10.9873 9.55981 11.0073 9.5034C11.0109 9.49289 11.0127 9.48151 11.017 9.47131C11.0307 9.43898 11.0478 9.408 11.0672 9.37924C11.1645 9.23546 11.3298 9.14068 11.5165 9.14068H16.1133L12.2182 3.3399C12.0518 3.09197 12.1169 2.75595 12.3647 2.58934C12.6126 2.42288 12.9486 2.48936 13.1152 2.73722L17.5628 9.35831C17.5932 9.40363 17.6131 9.45377 17.6283 9.5034C17.6481 9.55953 17.6618 9.6191 17.6618 9.68197C17.6618 9.74479 17.648 9.80585 17.6283 9.86194C17.6132 9.91145 17.5931 9.9604 17.5628 10.0056L13.1152 16.6281C13.0619 16.7076 12.9898 16.7663 12.9102 16.8067C12.9037 16.81 12.8972 16.8135 12.8906 16.8165C12.8693 16.8262 12.8473 16.8333 12.8251 16.8402C12.8143 16.8435 12.8038 16.8473 12.793 16.8499C12.7722 16.855 12.7514 16.8585 12.7302 16.8611C12.7218 16.8621 12.7135 16.8633 12.7051 16.8639C12.6813 16.8656 12.6578 16.8653 12.6339 16.8639C12.6283 16.8636 12.6228 16.863 12.6172 16.8625C12.5298 16.8546 12.4427 16.8284 12.3647 16.776C12.1168 16.6095 12.0505 16.2734 12.2168 16.0254L16.1119 10.2247H11.5151C11.2165 10.2244 10.9752 9.98198 10.9752 9.68337ZM2.62277 9.57316C2.6249 9.56279 2.62844 9.55261 2.63114 9.54246C2.64711 9.48325 2.67135 9.42717 2.70508 9.37784C2.71176 9.36804 2.72011 9.35927 2.7274 9.34994C2.73325 9.34243 2.73931 9.33481 2.74554 9.32762C2.77649 9.29206 2.81099 9.25923 2.85017 9.23275C2.93633 9.17441 3.04105 9.14089 3.1529 9.14068H8.85463L6.25698 5.2721C6.09051 5.02408 6.15687 4.68809 6.40485 4.52154C6.65281 4.35524 6.98887 4.4216 7.15541 4.66942L10.3139 9.37226C10.3787 9.46906 10.4061 9.5793 10.4032 9.68755C10.4041 9.79279 10.3755 9.89909 10.3125 9.99308L7.15402 14.6959C7.07976 14.8065 6.97149 14.8784 6.85268 14.9122C6.84986 14.913 6.84713 14.9142 6.84431 14.915C6.81763 14.9221 6.79084 14.9273 6.76339 14.9303C6.75875 14.9308 6.7541 14.9313 6.74944 14.9317C6.72386 14.9338 6.69847 14.9332 6.67271 14.9317C6.66804 14.9314 6.66343 14.9307 6.65876 14.9303C6.57053 14.9227 6.48219 14.8967 6.40346 14.8438C6.15578 14.6771 6.09049 14.3411 6.25698 14.0932L8.85463 10.2247H3.1529C3.02183 10.2247 2.90333 10.1753 2.80971 10.0977C2.80516 10.0939 2.80017 10.0905 2.79576 10.0865C2.68391 9.98745 2.61163 9.84455 2.61161 9.68337C2.61163 9.64625 2.61563 9.60817 2.62277 9.57316Z" fill="#418D20"/>
</svg>
