<svg width="22" height="14" viewBox="0 0 22 14" fill="none" xmlns="http://www.w3.org/2000/svg">
<g opacity="0.7">
<path fill-rule="evenodd" clip-rule="evenodd" d="M0.0917969 6.99418C0.125839 7.32976 0.238473 7.64214 0.410156 7.91312C0.787158 8.50892 1.45189 8.90433 2.20898 8.90433H2.91895C2.27699 9.87787 2.53893 11.1893 3.50879 11.8409C4.4839 12.4958 5.80601 12.2359 6.46094 11.2608L6.91699 10.5801C6.5145 11.5038 6.81555 12.6116 7.68164 13.1934C8.65668 13.848 9.97792 13.5882 10.6328 12.6133L12.5801 9.71195C12.4417 10.5132 12.7717 11.3581 13.4902 11.8409C14.4653 12.4955 15.7865 12.2358 16.4414 11.2608L18.6406 7.98637C18.7588 7.81516 18.85 7.62941 18.9131 7.43461C18.915 7.42877 18.9171 7.42288 18.9189 7.41703C18.9334 7.37096 18.9457 7.32428 18.957 7.27738C18.9618 7.25783 18.9675 7.23842 18.9717 7.21879C18.9774 7.19167 18.9803 7.16414 18.9844 7.13676H19.6855C19.8693 7.13653 20.0186 6.98752 20.0186 6.80375V6.71195C20.0183 6.5284 19.8691 6.37917 19.6855 6.37894H18.9785C18.9741 6.3566 18.9708 6.33387 18.9658 6.31156C18.9603 6.2867 18.9537 6.26199 18.9473 6.23734C18.9369 6.19781 18.9259 6.15829 18.9131 6.11918C18.9058 6.09659 18.8977 6.07415 18.8896 6.0518C18.8756 6.01322 18.8612 5.97456 18.8447 5.93656C18.8302 5.90261 18.8142 5.8692 18.7979 5.83597C18.7864 5.81286 18.7751 5.78947 18.7627 5.76664C18.7247 5.696 18.6829 5.62701 18.6367 5.56058L16.4424 2.29301C15.8283 1.37934 14.6286 1.09433 13.6777 1.6016L13.4912 1.7139C12.773 2.19624 12.4435 3.04007 12.5811 3.84086L10.6338 0.941443C10.0198 0.0275781 8.82006 -0.258261 7.86914 0.249061L7.68262 0.361365C6.81686 0.94282 6.51643 2.04928 6.91797 2.97269L6.46191 2.29301L6.33105 2.11918C5.6427 1.28977 4.42387 1.10014 3.50977 1.7139C2.53978 2.3656 2.27847 3.67685 2.9209 4.65043H2.20898C1.10796 4.65043 0.201981 5.48741 0.0927734 6.55961L0.0820312 6.77738L0.0917969 6.99418ZM12.7803 6.77738C12.7804 6.56841 12.9493 6.39865 13.1582 6.39847H16.1787L14.3604 3.69047C14.2441 3.51694 14.2905 3.28166 14.4639 3.16508C14.5111 3.13335 14.5634 3.1148 14.6162 3.10648C14.6321 3.1039 14.6481 3.10213 14.6641 3.1016C14.7897 3.09801 14.914 3.15662 14.9893 3.26859L17.2051 6.56742C17.2191 6.58858 17.2318 6.61156 17.2412 6.6348C17.2591 6.67832 17.2676 6.72409 17.2686 6.76957C17.2686 6.77213 17.2686 6.77482 17.2686 6.77738C17.2686 6.85377 17.2451 6.92846 17.2012 6.99222L14.9893 10.2871C14.9652 10.323 14.9349 10.3523 14.9023 10.377C14.8979 10.3804 14.8933 10.3836 14.8887 10.3868C14.877 10.3948 14.8649 10.4016 14.8525 10.4082C14.8457 10.4119 14.839 10.4158 14.832 10.419C14.8177 10.4255 14.8031 10.4309 14.7881 10.4356C14.782 10.4375 14.7757 10.4389 14.7695 10.4405C14.7518 10.4451 14.7341 10.4492 14.7158 10.4512C14.7126 10.4516 14.7093 10.4519 14.7061 10.4522C14.6875 10.4537 14.6691 10.4544 14.6504 10.4532C14.6468 10.4529 14.6433 10.4515 14.6396 10.4512C14.5787 10.4455 14.5182 10.4271 14.4639 10.3907C14.3114 10.2882 14.2562 10.094 14.3242 9.9307C14.3338 9.90741 14.3468 9.885 14.3613 9.86332L16.1797 7.15629H13.1582C12.9753 7.15613 12.8223 7.02612 12.7871 6.85355L12.7803 6.77738ZM7.68262 6.77836C7.68264 6.73409 7.6911 6.69187 7.70508 6.65238C7.70764 6.64502 7.7089 6.63706 7.71191 6.62992C7.72148 6.60728 7.73348 6.5856 7.74707 6.56547C7.81514 6.46482 7.93087 6.39847 8.06152 6.39847H11.2793L8.55273 2.33793C8.43625 2.16438 8.48184 1.92917 8.65527 1.81254C8.82885 1.69601 9.06404 1.74255 9.18066 1.91605L12.2939 6.55082C12.3153 6.58254 12.3292 6.61764 12.3398 6.65238C12.3537 6.69167 12.3633 6.73337 12.3633 6.77738C12.3633 6.82135 12.3536 6.8641 12.3398 6.90336C12.3292 6.93801 12.3151 6.97228 12.2939 7.00394L9.18066 11.6397C9.14331 11.6953 9.09289 11.7364 9.03711 11.7647C9.03256 11.767 9.02807 11.7694 9.02344 11.7715C9.00853 11.7783 8.99314 11.7833 8.97754 11.7881C8.97004 11.7904 8.9627 11.7931 8.95508 11.795C8.94054 11.7985 8.92599 11.801 8.91113 11.8028C8.90527 11.8035 8.89944 11.8043 8.89355 11.8047C8.87694 11.8059 8.86046 11.8057 8.84375 11.8047C8.83983 11.8045 8.83594 11.8041 8.83203 11.8037C8.77083 11.7982 8.70989 11.7799 8.65527 11.7432C8.48178 11.6266 8.43537 11.3914 8.55176 11.2178L11.2783 7.15726H8.06055C7.85155 7.15711 7.68265 6.98738 7.68262 6.77836ZM1.83594 6.70121C1.83743 6.69395 1.8399 6.68682 1.8418 6.67972C1.85298 6.63827 1.86994 6.59902 1.89355 6.56449C1.89824 6.55763 1.90408 6.55149 1.90918 6.54496C1.91327 6.5397 1.91751 6.53437 1.92188 6.52933C1.94354 6.50444 1.96769 6.48146 1.99512 6.46293C2.05543 6.42209 2.12874 6.39862 2.20703 6.39847H6.19824L4.37988 3.69047C4.26336 3.51685 4.30981 3.28166 4.4834 3.16508C4.65697 3.04867 4.89221 3.09512 5.00879 3.26859L7.21973 6.56058C7.26511 6.62834 7.28428 6.70551 7.28223 6.78129C7.28291 6.85495 7.26287 6.92936 7.21875 6.99515L5.00781 10.2871C4.95583 10.3645 4.88004 10.4149 4.79688 10.4385C4.7949 10.4391 4.79299 10.4399 4.79102 10.4405C4.77234 10.4454 4.75359 10.4491 4.73438 10.4512C4.73112 10.4516 4.72787 10.4519 4.72461 10.4522C4.7067 10.4537 4.68893 10.4533 4.6709 10.4522C4.66763 10.452 4.6644 10.4515 4.66113 10.4512C4.59937 10.4459 4.53753 10.4277 4.48242 10.3907C4.30905 10.274 4.26334 10.0388 4.37988 9.86527L6.19824 7.15726H2.20703C2.11528 7.15726 2.03233 7.12268 1.9668 7.0684C1.96361 7.06575 1.96012 7.06334 1.95703 7.06058C1.87874 6.99122 1.82814 6.89118 1.82812 6.77836C1.82814 6.75237 1.83094 6.72572 1.83594 6.70121Z" fill="white"/>
</g>
</svg>
