<svg width="71" height="46" viewBox="0 0 71 46" fill="none" xmlns="http://www.w3.org/2000/svg">
<rect x="28.6016" y="24.5762" width="2.5246" height="41.456" rx="1.10997" transform="rotate(-90 28.6016 24.5762)" fill="#418D20"/>
<rect x="-2.91368" y="-2.91368" width="8.35196" height="21.4296" rx="4.17598" transform="matrix(-1.19249e-08 1 1 1.19249e-08 25.6133 22.1211)" fill="white" stroke="#418D20" stroke-width="5.82735"/>
<rect width="2.5246" height="17.8062" rx="1.2623" transform="matrix(-1.19249e-08 1 1 1.19249e-08 6.09766 22.1211)" fill="white"/>
<rect width="2.5246" height="14.5415" rx="1.2623" transform="matrix(-1.19249e-08 1 1 1.19249e-08 42.6055 22.1211)" fill="white"/>
<rect x="0.794299" y="-4.04328" width="8.35196" height="21.5702" rx="4.17598" transform="matrix(-0.83015 0.55754 0.55754 0.83015 19.7041 9.50907)" fill="#418D20" stroke="#418D20" stroke-width="5.82735"/>
<rect x="0.794299" y="-4.04328" width="8.35196" height="26.9649" rx="4.17598" transform="matrix(-0.83015 0.55754 0.55754 0.83015 33.6103 4.9993)" fill="white" stroke="#418D20" stroke-width="5.82735"/>
<rect x="0.794299" y="-4.04328" width="8.35196" height="21.5976" rx="4.17598" transform="matrix(-0.83015 0.55754 0.55754 0.83015 52.9736 9.50907)" fill="#418D20" stroke="#418D20" stroke-width="5.82735"/>
<rect x="22.6996" y="27.5602" width="8.35196" height="21.4296" rx="4.17598" transform="rotate(-90 22.6996 27.5602)" fill="white" stroke="#418D20" stroke-width="5.82735"/>
<rect x="6.09766" y="24.6465" width="2.5246" height="17.8062" rx="1.2623" transform="rotate(-90 6.09766 24.6465)" fill="#418D20"/>
<rect x="42.6055" y="24.6465" width="2.5246" height="14.5415" rx="1.2623" transform="rotate(-90 42.6055 24.6465)" fill="white"/>
<rect x="16.7904" y="40.1702" width="8.35196" height="21.5702" rx="4.17598" transform="rotate(-146.114 16.7904 40.1702)" fill="#418D20" stroke="#418D20" stroke-width="5.82735"/>
<rect x="30.6966" y="44.68" width="8.35196" height="26.9649" rx="4.17598" transform="rotate(-146.114 30.6966 44.68)" fill="#418D20" stroke="#418D20" stroke-width="5.82735"/>
<rect x="50.0599" y="40.1702" width="8.35196" height="21.5976" rx="4.17598" transform="rotate(-146.114 50.0599 40.1702)" fill="#418D20" stroke="#418D20" stroke-width="5.82735"/>
<rect width="2.5246" height="15.6023" rx="1.2623" transform="matrix(-1.19249e-08 1 1 1.19249e-08 25.6133 22.1211)" fill="white"/>
<rect x="-2.91368" y="-2.91368" width="8.35196" height="23.6336" rx="4.17598" transform="matrix(-1.19249e-08 1 1 1.19249e-08 6.09766 22.1211)" fill="white" stroke="#418D20" stroke-width="5.82735"/>
<rect width="2.5246" height="14.5415" rx="1.2623" transform="matrix(-1.19249e-08 1 1 1.19249e-08 42.6055 22.1211)" fill="white"/>
<rect width="2.5246" height="15.7428" rx="1.2623" transform="matrix(-0.83015 0.55754 0.55754 0.83015 15.9961 10.6387)" fill="white"/>
<rect width="2.5246" height="21.1376" rx="1.2623" transform="matrix(-0.83015 0.55754 0.55754 0.83015 29.9023 6.12891)" fill="white"/>
<rect width="2.5246" height="15.7703" rx="1.2623" transform="matrix(-0.83015 0.55754 0.55754 0.83015 49.2656 10.6387)" fill="white"/>
<rect x="25.6133" y="24.6465" width="2.5246" height="15.6023" rx="1.2623" transform="rotate(-90 25.6133 24.6465)" fill="white"/>
<rect x="6.09766" y="24.6465" width="2.5246" height="17.8062" rx="1.2623" transform="rotate(-90 6.09766 24.6465)" fill="white"/>
<rect x="42.6055" y="24.6465" width="2.5246" height="14.5415" rx="1.2623" transform="rotate(-90 42.6055 24.6465)" fill="white"/>
<rect x="15.9961" y="36.127" width="2.5246" height="15.7428" rx="1.2623" transform="rotate(-146.114 15.9961 36.127)" fill="white"/>
<rect x="29.9023" y="40.6367" width="2.5246" height="21.1376" rx="1.2623" transform="rotate(-146.114 29.9023 40.6367)" fill="white"/>
<rect x="49.2656" y="36.127" width="2.5246" height="15.7703" rx="1.2623" transform="rotate(-146.114 49.2656 36.127)" fill="white"/>
</svg>
